<?xml version="1.0" standalone="no"?>
<!DOCTYPE svg PUBLIC "-//W3C//DTD SVG 20010904//EN"
 "http://www.w3.org/TR/2001/REC-SVG-20010904/DTD/svg10.dtd">
<svg version="1.0" xmlns="http://www.w3.org/2000/svg"
 width="342.000000pt" height="326.000000pt" viewBox="0 0 342.000000 326.000000"
 preserveAspectRatio="xMidYMid meet">

<g transform="translate(0.000000,326.000000) scale(0.100000,-0.100000)"
fill="#000000" stroke="none">
<path d="M0 1630 l0 -1630 1710 0 1710 0 0 1630 0 1630 -1710 0 -1710 0 0
-1630z m1110 1425 l0 -155 -30 0 -30 0 0 155 0 155 30 0 30 0 0 -155z m188 88
c-2 -20 -9 -29 -25 -31 -22 -3 -23 -7 -23 -108 l0 -104 -35 0 -35 0 0 104 c0
101 -1 105 -22 108 -17 2 -24 11 -26 31 l-3 27 86 0 86 0 -3 -27z m182 -83
c15 -58 30 -117 33 -132 7 -26 5 -28 -23 -28 -23 0 -33 6 -40 25 -7 19 -17 25
-39 25 -22 0 -30 -5 -35 -25 -5 -20 -13 -25 -37 -25 -25 0 -30 4 -27 18 3 9
18 70 34 135 l28 118 40 -3 40 -3 26 -105z m120 0 l0 -110 40 0 c36 0 40 -2
40 -25 0 -24 -2 -25 -75 -25 l-75 0 0 135 0 135 35 0 35 0 0 -110z m170 -25
l0 -135 -30 0 -30 0 0 135 0 135 30 0 30 0 0 -135z m195 18 c15 -65 30 -126
33 -136 4 -16 -1 -18 -29 -15 -26 2 -35 8 -37 26 -3 18 -10 22 -37 22 -27 0
-34 -4 -37 -22 -2 -18 -11 -24 -35 -26 -18 -2 -33 0 -33 3 0 11 61 249 66 257
3 4 22 8 43 8 l37 0 29 -117z m134 60 l30 -58 1 58 c0 57 0 57 30 57 l30 0 0
-135 0 -135 -25 0 c-20 0 -30 11 -54 58 l-30 57 -1 -57 c0 -58 0 -58 -30 -58
l-30 0 0 135 0 135 25 0 c20 0 30 -11 54 -57z m-539 -703 c33 -26 90 -26 124
1 37 29 48 13 12 -18 -26 -22 -37 -25 -88 -21 -42 3 -62 10 -73 24 -28 37 -15
45 25 14z m85 9 c11 -17 -1 -21 -15 -4 -8 9 -8 15 -2 15 6 0 14 -5 17 -11z
m-489 -19 c44 -28 61 -78 39 -119 -8 -17 -19 -31 -24 -31 -8 0 -57 51 -107
111 -43 52 24 80 92 39z m885 -1 c16 -25 9 -44 -24 -66 -46 -32 -85 -29 -127
9 -19 17 -27 28 -17 24 15 -5 17 -2 12 14 -5 15 0 23 17 30 33 14 128 6 139
-11z m459 12 c0 -12 -21 -19 -37 -13 -21 7 -15 17 12 20 14 1 25 -2 25 -7z
m574 -12 c-30 -12 -37 -10 -24 5 6 8 19 12 27 9 14 -6 14 -8 -3 -14z m-2077
-21 c-3 -8 -6 -5 -6 6 -1 11 2 17 5 13 3 -3 4 -12 1 -19z m-322 -8 c-3 -5 -11
-10 -16 -10 -6 0 -7 5 -4 10 3 6 11 10 16 10 6 0 7 -4 4 -10z m428 -120 c-5
-5 -33 25 -66 70 l-18 25 6 -30 c4 -22 3 -26 -5 -15 -15 23 -12 48 7 59 15 8
23 0 49 -47 18 -31 30 -59 27 -62z m1463 113 c-18 -5 -18 -6 5 -19 13 -7 18
-13 11 -14 -7 0 -10 -4 -7 -10 3 -6 -1 -7 -10 -3 -12 4 -13 8 -5 13 8 5 7 9
-5 14 -20 7 -10 26 13 25 13 -1 13 -2 -2 -6z m-450 -12 c-4 -5 0 -11 6 -14 7
-2 9 -8 5 -13 -4 -5 -12 -2 -17 6 -13 20 -12 30 1 30 5 0 8 -4 5 -9z m134 0
c0 -6 -4 -13 -10 -16 -5 -3 -10 1 -10 9 0 9 5 16 10 16 6 0 10 -4 10 -9z m142
-23 c-7 -7 -12 -8 -12 -2 0 6 3 14 7 17 3 4 9 5 12 2 2 -3 -1 -11 -7 -17z
m-1504 -26 c9 -28 9 -28 -28 -30 -42 -3 -63 15 -36 30 9 5 22 15 29 23 15 17
23 12 35 -23z m1307 10 c-8 -8 -25 10 -19 20 4 6 9 5 15 -3 4 -7 6 -15 4 -17z
m-875 -2 c0 -5 -5 -10 -11 -10 -5 0 -7 5 -4 10 3 6 8 10 11 10 2 0 4 -4 4 -10z
m495 -28 c-8 -8 -25 10 -19 20 4 6 9 5 15 -3 4 -7 6 -15 4 -17z m465 8 c0 -5
-5 -10 -11 -10 -5 0 -7 5 -4 10 3 6 8 10 11 10 2 0 4 -4 4 -10z m-509 -20 c69
0 89 -3 89 -14 0 -14 44 -31 69 -27 8 1 10 -2 5 -10 -5 -9 -2 -10 9 -6 9 3 27
2 39 -3 14 -5 17 -9 8 -10 -13 0 -13 -1 0 -10 8 -5 23 -7 33 -4 10 3 17 0 17
-9 0 -8 19 -22 42 -33 62 -28 143 -95 221 -182 88 -98 103 -120 90 -133 -11
-11 -43 24 -43 48 0 16 -57 56 -70 48 -5 -3 -7 0 -5 8 12 29 -81 54 -132 35
-14 -4 -23 -4 -23 2 0 6 -7 10 -15 10 -18 0 -20 -21 -3 -38 16 -16 55 -15 61
1 3 8 18 0 43 -24 66 -60 70 -62 96 -48 13 6 20 8 16 4 -5 -5 6 -21 23 -36 18
-16 26 -30 20 -34 -6 -3 -15 -3 -21 0 -5 3 -10 1 -10 -6 0 -7 -10 -9 -25 -7
-15 3 -29 0 -33 -8 -6 -10 -15 -11 -37 -5 -17 5 -26 10 -21 10 11 1 -14 31
-26 31 -6 0 -8 -6 -5 -14 4 -9 -8 -19 -34 -29 -21 -8 -39 -20 -39 -26 0 -6 28
-19 63 -30 51 -16 56 -20 30 -20 -17 -1 -34 3 -38 8 -3 6 -14 9 -25 8 -18 -1
-17 -4 8 -25 19 -16 21 -20 6 -13 -11 5 -26 17 -34 25 -16 21 -47 20 -58 0
-14 -26 -48 -13 -43 16 1 14 7 27 11 30 4 3 7 24 7 47 l0 42 -27 -14 c-36 -19
-63 -10 -84 26 -20 34 -14 53 8 24 7 -10 18 -15 24 -11 6 3 13 2 17 -4 11 -17
65 -12 65 6 0 12 7 15 24 12 18 -4 26 0 29 14 3 10 1 21 -4 24 -5 3 -9 -2 -9
-10 0 -19 -2 -20 -44 -2 -24 10 -37 11 -45 3 -7 -7 -14 -7 -24 1 -8 7 -18 8
-22 4 -5 -4 -5 1 -2 11 4 10 2 27 -3 38 -7 13 -7 19 0 19 5 0 10 -7 10 -15 0
-8 7 -15 15 -15 23 0 18 27 -7 33 -12 3 -29 2 -39 -4 -14 -7 -22 -4 -35 15 -8
14 -13 29 -10 34 3 5 -13 26 -36 47 -35 33 -43 37 -60 26 -15 -9 -23 -9 -34 0
-7 6 -11 15 -8 20 3 5 -1 10 -8 10 -7 1 -20 2 -28 3 -8 1 -20 -2 -27 -7 -6 -5
-31 -7 -55 -5 -43 3 -43 3 -43 -30 0 -18 -7 -37 -15 -42 -9 -6 -10 -10 -3 -10
6 0 15 -9 18 -20 4 -11 10 -18 14 -16 4 3 5 -8 3 -24 -2 -17 -8 -28 -12 -25
-5 3 -18 -8 -30 -25 -26 -36 -40 -38 -40 -7 0 13 -6 32 -14 42 -13 18 -14 17
-31 -11 -10 -16 -26 -41 -37 -57 -20 -29 -22 -27 27 -42 11 -3 13 3 11 23 -2
15 -1 20 1 12 3 -8 12 -24 22 -34 12 -14 13 -20 4 -23 -10 -3 -9 -9 3 -20 24
-24 -6 -37 -42 -18 -15 7 -31 12 -35 10 -9 -6 -21 22 -23 52 -1 13 -8 28 -15
35 -12 11 -13 10 -8 -4 14 -41 -34 -6 -64 46 -10 18 -9 19 25 13 20 -3 36 -2
36 4 0 5 6 9 13 10 6 0 22 13 34 28 l23 29 -30 12 c-16 6 -34 9 -41 4 -9 -5
-10 -2 -6 10 4 10 2 27 -4 38 -13 23 -4 37 13 20 7 -7 16 -12 20 -12 13 0 4
44 -12 57 -13 11 -12 12 7 13 25 0 39 15 23 25 -13 8 -115 -46 -114 -60 1 -5
12 -15 25 -22 27 -14 32 -39 7 -37 -10 1 -14 -4 -11 -12 3 -7 10 -12 15 -11 6
1 13 -4 15 -10 3 -7 -2 -13 -10 -13 -10 0 -13 -7 -10 -18 2 -10 -3 -24 -11
-31 -21 -17 -35 -5 -88 72 -42 62 -42 61 4 87 10 6 15 17 11 26 -5 13 -2 15
13 10 29 -9 170 49 166 68 -2 9 2 16 8 16 5 0 10 -5 10 -11 0 -6 9 -8 21 -4
47 15 195 43 207 39 8 -2 54 -4 103 -4z m-366 -20 c3 -5 -1 -10 -10 -10 -9 0
-13 5 -10 10 3 6 8 10 10 10 2 0 7 -4 10 -10z m-185 -14 c0 -3 -4 -8 -10 -11
-5 -3 -10 -1 -10 4 0 6 5 11 10 11 6 0 10 -2 10 -4z m910 -6 c0 -5 -4 -10 -10
-10 -5 0 -10 5 -10 10 0 6 5 10 10 10 6 0 10 -4 10 -10z m500 -1 c0 -5 -4 -7
-10 -4 -5 3 -10 1 -10 -4 0 -6 -9 -11 -20 -11 -11 0 -20 4 -20 9 0 8 10 12 53
20 4 0 7 -4 7 -10z m-1495 -9 c3 -5 2 -10 -4 -10 -5 0 -13 5 -16 10 -3 6 -2
10 4 10 5 0 13 -4 16 -10z m-545 -32 c0 -5 -4 -8 -10 -8 -5 0 -10 10 -10 23 0
18 2 19 10 7 5 -8 10 -18 10 -22z m-155 2 c3 -5 -1 -10 -10 -10 -9 0 -13 5
-10 10 3 6 8 10 10 10 2 0 7 -4 10 -10z m440 -10 c3 -5 -1 -10 -9 -10 -9 0
-16 5 -16 10 0 6 4 10 9 10 6 0 13 -4 16 -10z m1195 -10 c0 -5 -2 -10 -4 -10
-3 0 -8 5 -11 10 -3 6 -1 10 4 10 6 0 11 -4 11 -10z m-1431 -38 c-12 -5 -39
17 -39 30 0 5 11 1 24 -9 13 -10 20 -20 15 -21z m1501 34 c0 -3 -4 -8 -10 -11
-5 -3 -10 -1 -10 4 0 6 5 11 10 11 6 0 10 -2 10 -4z m-1400 -16 c0 -5 -4 -10
-10 -10 -5 0 -10 5 -10 10 0 6 5 10 10 10 6 0 10 -4 10 -10z m1980 -17 c0 -5
-4 -14 -9 -21 -6 -11 -11 -10 -25 3 -21 22 -20 25 9 25 14 0 25 -3 25 -7z
m-1083 -36 c-5 -17 -37 -21 -37 -5 0 8 9 14 21 15 12 1 19 -3 16 -10z m-1018
-23 c17 -37 8 -39 -13 -4 -9 17 -13 30 -8 30 5 0 14 -12 21 -26z m566 -45 c17
-28 40 -59 53 -69 12 -10 22 -21 22 -25 0 -5 16 -23 35 -42 19 -19 35 -39 35
-45 0 -7 -7 -3 -15 8 -17 22 -19 15 -5 -20 6 -17 6 -26 0 -26 -6 0 -10 9 -10
20 0 14 -7 20 -24 20 -21 0 -26 -7 -37 -50 l-13 -49 -27 16 c-23 14 -33 14
-73 3 -37 -10 -50 -20 -68 -51 -21 -38 -22 -39 -42 -20 -30 26 -46 34 -46 22
0 -6 6 -11 14 -11 8 0 24 -11 35 -26 11 -14 22 -25 25 -25 19 2 25 -1 30 -16
6 -15 4 -15 -14 2 -20 18 -20 18 -14 -16 5 -30 4 -32 -7 -14 -7 11 -27 34 -45
52 -29 28 -34 30 -52 17 -16 -11 -22 -11 -26 -1 -3 6 -3 1 1 -13 3 -14 6 -36
5 -49 -1 -13 6 -30 15 -38 16 -12 14 -13 -22 -9 -22 3 -48 5 -57 6 -22 0 -18
32 10 87 12 23 22 50 22 59 0 10 14 48 32 86 24 53 34 66 40 54 8 -14 11 -14
34 1 19 12 22 18 12 24 -10 7 -9 17 8 48 12 22 18 41 13 43 -5 2 -10 14 -11
28 -3 22 1 25 32 25 21 0 48 9 65 22 17 12 32 22 35 22 3 1 19 -22 35 -50z
m512 45 c-3 -3 -12 -4 -19 -1 -8 3 -5 6 6 6 11 1 17 -2 13 -5z m-60 -40 c-3
-3 -12 -4 -19 -1 -8 3 -5 6 6 6 11 1 17 -2 13 -5z m176 -52 c3 7 6 3 6 -9 1
-14 7 -23 17 -23 9 0 12 5 8 13 -4 6 2 4 13 -5 11 -10 25 -18 32 -18 7 0 9 -4
6 -10 -3 -5 -2 -10 3 -10 6 0 8 -17 5 -37 -6 -51 5 -77 46 -105 36 -24 51 -48
30 -48 -13 0 -18 4 -77 59 -19 17 -42 31 -52 31 -10 0 -25 9 -33 21 -16 23
-48 22 -58 -1 -6 -12 -8 -12 -14 4 -5 11 -2 29 9 46 24 42 19 53 -13 29 -23
-17 -37 -20 -66 -15 -34 7 -82 42 -72 53 3 2 15 -5 26 -16 26 -26 97 -30 87
-6 -3 8 -1 15 5 15 6 0 7 5 4 10 -4 6 -12 4 -22 -5 -9 -9 -22 -14 -30 -11 -8
3 -20 6 -26 7 -7 0 -2 4 10 9 14 6 21 15 17 23 -4 10 4 16 25 19 25 4 31 0 37
-21 l7 -26 14 34 14 34 19 -27 c12 -19 19 -24 23 -14z m612 8 c3 -5 1 -10 -4
-10 -6 0 -11 5 -11 10 0 6 2 10 4 10 3 0 8 -4 11 -10z m-1734 -18 c-7 -2 -18
1 -23 6 -8 8 -4 9 13 5 13 -4 18 -8 10 -11z m2423 -23 c-12 -4 -24 -14 -27
-23 -9 -24 -36 -20 -30 4 7 28 -4 25 -38 -11 -16 -17 -33 -28 -39 -24 -15 9 7
45 28 45 9 0 25 6 34 13 10 8 32 11 55 9 31 -4 34 -6 17 -13z m-499 -9 c3 -5
1 -10 -4 -10 -6 0 -11 5 -11 10 0 6 2 10 4 10 3 0 8 -4 11 -10z m-1905 -21 c0
-5 -4 -9 -10 -9 -5 0 -10 7 -10 16 0 8 5 12 10 9 6 -3 10 -10 10 -16z m878
-14 c15 -32 15 -55 1 -55 -5 0 -8 -4 -4 -9 3 -5 0 -13 -6 -16 -6 -4 -13 2 -16
15 -4 16 -8 18 -14 8 -7 -10 -9 -9 -9 4 0 9 5 20 10 23 6 4 10 14 9 23 -4 41
12 44 29 7z m1012 -5 c0 -5 -4 -10 -10 -10 -5 0 -10 5 -10 10 0 6 5 10 10 10
6 0 10 -4 10 -10z m583 -28 c-22 -5 -27 5 -12 21 12 13 15 13 20 -2 4 -10 1
-17 -8 -19z m-2436 22 c-3 -3 -12 -4 -19 -1 -8 3 -5 6 6 6 11 1 17 -2 13 -5z
m2323 -14 c0 -5 5 -10 11 -10 5 0 8 4 5 8 -8 14 19 10 32 -4 7 -8 8 -15 2 -19
-17 -10 -11 -25 10 -25 13 0 18 -5 14 -15 -5 -11 -10 -12 -26 -4 -27 14 -35 3
-19 -24 13 -20 13 -21 -1 -9 -13 10 -17 10 -22 -4 -3 -9 -4 -19 -1 -24 3 -4
-4 -6 -15 -3 -15 4 -17 9 -10 23 13 25 13 30 -4 30 -8 0 -24 -11 -37 -24 -13
-14 -27 -22 -31 -20 -10 6 21 39 45 47 28 10 21 30 -9 23 -23 -6 -24 -5 -14
14 8 15 17 19 32 14 18 -5 20 -3 15 15 -3 14 0 21 9 21 8 0 14 -4 14 -10z
m-2290 -10 c0 -5 -4 -10 -10 -10 -5 0 -10 5 -10 10 0 6 5 10 10 10 6 0 10 -4
10 -10z m1755 -10 c3 -6 -1 -13 -10 -16 -19 -8 -30 0 -20 15 8 14 22 14 30 1z
m75 -5 c0 -8 -4 -15 -9 -15 -13 0 -22 16 -14 24 11 11 23 6 23 -9z m-1800 -48
c0 -5 -4 -5 -10 -2 -5 3 -10 14 -10 23 0 15 2 15 10 2 5 -8 10 -19 10 -23z
m930 -1 c0 -30 65 -53 75 -27 6 15 8 15 18 -1 9 -14 12 -14 22 -2 9 13 13 13
29 1 25 -18 12 -39 -20 -31 -13 3 -30 1 -38 -5 -10 -8 -21 -7 -44 4 -16 9 -59
18 -94 21 -60 6 -88 16 -88 35 0 14 30 10 30 -3 1 -7 9 -3 19 8 31 38 91 38
91 0z m-348 -53 c10 -24 26 -43 34 -43 9 0 14 -6 11 -12 -2 -7 7 -28 21 -47
17 -23 22 -36 14 -39 -7 -2 -12 -11 -12 -19 0 -9 6 -13 14 -10 31 12 156 -117
156 -161 0 -18 -53 -10 -84 13 -12 8 -31 22 -43 31 -20 14 -22 14 -32 -4 -19
-35 -3 -60 43 -67 57 -9 73 -19 58 -38 -7 -7 -9 -17 -5 -20 3 -4 -2 -7 -11 -7
-12 0 -16 5 -13 15 9 21 -12 30 -30 12 -12 -11 -12 -19 -4 -35 9 -17 6 -25
-19 -50 -29 -29 -29 -30 -47 -9 -18 20 -18 20 7 7 22 -12 24 -12 12 2 -10 12
-9 21 3 44 13 25 13 30 -3 47 -9 10 -22 31 -29 45 -11 27 -12 26 -7 -8 l4 -35
-13 37 c-16 47 -24 54 -32 29 -5 -17 -10 -19 -25 -11 -24 13 -33 13 -25 -1 4
-6 -1 -17 -11 -24 -21 -16 -13 -19 39 -15 24 1 27 -2 27 -31 0 -18 7 -41 17
-51 10 -11 12 -18 4 -18 -6 0 -11 -6 -10 -12 5 -42 -32 -65 -76 -48 -29 11
-34 30 -5 23 11 -3 30 4 45 15 30 24 26 26 -60 38 -82 11 -112 39 -63 61 20 9
18 11 -28 32 -105 48 -97 42 -75 64 18 18 24 19 73 8 102 -24 126 -24 162 -3
18 11 48 23 65 27 32 7 44 18 48 47 2 13 -4 11 -25 -9 -15 -14 -37 -29 -50
-34 -27 -10 -86 -12 -120 -3 -23 7 -23 7 -2 21 11 8 25 11 30 8 6 -3 10 1 10
10 0 12 4 14 19 5 22 -11 40 5 24 21 -15 15 -4 59 13 52 8 -3 14 -11 14 -18 0
-14 18 -30 25 -23 3 2 0 20 -6 39 -6 19 -12 41 -14 49 -5 29 -24 68 -35 72 -6
2 -12 16 -14 31 -1 15 -6 30 -9 34 -4 3 -7 13 -7 21 0 25 31 -8 52 -55z m1074
15 c40 -79 72 -168 77 -218 3 -25 10 -58 16 -73 10 -25 7 -67 -6 -90 -10 -17
-43 33 -43 65 0 18 -7 46 -15 62 -18 34 -18 37 -2 34 14 -3 13 13 -9 97 -17
66 -47 109 -82 120 -23 7 -23 6 -8 -17 9 -14 13 -28 9 -31 -3 -4 -1 -7 5 -7 6
0 14 5 18 11 12 20 22 -11 17 -52 -4 -24 -1 -45 7 -54 7 -9 10 -18 7 -22 -4
-3 -2 -12 5 -20 18 -22 3 -25 -20 -4 -12 10 -22 25 -22 34 0 20 -30 30 -65 21
-26 -6 -51 -47 -39 -65 9 -14 41 -10 48 6 3 8 11 15 18 15 9 0 8 -3 -2 -10 -8
-5 -11 -10 -6 -10 5 0 1 -9 -8 -19 -20 -23 -4 -40 20 -20 11 9 18 8 32 -5 10
-9 22 -13 27 -9 4 5 2 -2 -4 -14 -9 -18 -9 -23 1 -23 9 0 9 -3 0 -12 -7 -7
-12 -19 -12 -28 1 -13 2 -13 13 0 13 16 42 26 33 12 -3 -5 3 -17 14 -27 26
-23 15 -40 -13 -20 -23 16 -82 21 -73 6 3 -5 -1 -12 -10 -15 -10 -4 -14 -14
-11 -25 2 -10 1 -25 -4 -32 -7 -11 -11 -10 -22 5 -13 18 -14 18 -36 -5 -20
-22 -20 -24 -4 -30 30 -12 162 4 173 20 8 13 50 24 50 13 0 -4 -15 -28 -32
-51 -30 -39 -36 -42 -68 -37 -19 3 -36 10 -38 15 -2 5 -18 7 -37 4 -40 -7
-105 13 -105 33 0 8 4 14 9 14 5 0 7 9 4 19 -3 13 3 25 20 36 14 9 27 25 30
36 3 12 9 19 14 16 4 -2 22 2 38 9 l30 12 -25 10 c-14 6 -38 24 -54 40 -26 29
-31 30 -85 25 -33 -4 -78 -17 -109 -34 -29 -15 -60 -25 -69 -22 -13 5 -15 1
-9 -23 4 -16 10 -46 13 -66 l5 -36 -43 5 c-32 5 -40 3 -34 -6 5 -9 3 -10 -11
-2 -31 16 -86 31 -95 25 -10 -6 -12 7 -3 30 9 23 53 20 110 -9 63 -32 77 -32
34 0 -42 31 -52 47 -37 57 7 4 -14 6 -46 3 -41 -3 -57 -1 -55 7 6 16 160 108
170 102 4 -3 5 -16 2 -30 -3 -13 -4 -24 -1 -24 12 0 82 52 82 60 0 5 9 16 20
23 10 8 20 26 20 40 1 20 43 89 48 79 2 -3 13 0 55 14 15 5 14 7 -6 15 -13 5
-28 7 -32 4 -4 -3 -19 -1 -32 4 -22 9 -22 10 7 11 17 0 41 3 55 5 22 5 22 4 5
-4 -18 -8 -18 -10 -2 -12 34 -4 37 -4 35 3 -2 4 16 20 39 35 23 15 39 31 36
36 -3 6 -1 7 5 3 6 -3 13 -2 17 4 12 20 25 9 51 -42z m242 5 c17 -7 10 -39 -8
-35 -11 3 -11 0 -1 -12 8 -10 9 -16 1 -21 -13 -8 -40 12 -40 31 0 7 -9 18 -20
24 -11 6 -20 20 -20 30 0 20 1 20 38 4 20 -9 43 -18 50 -21z m-1168 1 c0 -8
-19 -13 -24 -6 -3 5 1 9 9 9 8 0 15 -2 15 -3z m-242 -46 c9 -25 9 -34 0 -39
-15 -10 -14 -12 -21 34 -7 45 4 48 21 5z m42 7 c0 -9 7 -18 15 -21 21 -8 19
-24 -3 -24 -19 0 -46 43 -35 54 11 11 23 6 23 -9z m847 9 c-3 -3 -12 -4 -19
-1 -8 3 -5 6 6 6 11 1 17 -2 13 -5z m363 -21 c0 -20 -3 -24 -11 -16 -7 7 -9
19 -6 27 10 24 17 19 17 -11z m-1360 -7 c0 0 -4 -16 -9 -34 -8 -27 -7 -32 7
-33 12 0 11 -3 -5 -9 -18 -7 -28 -3 -52 20 -34 30 -40 46 -16 36 9 -3 23 3 33
13 9 9 23 16 30 13 6 -2 12 -5 12 -6z m536 -15 c-8 -13 -36 -15 -36 -3 0 4 5
13 12 20 14 14 34 0 24 -17z m202 16 c6 -5 12 -21 12 -36 0 -21 6 -30 23 -35
12 -3 23 -1 25 4 6 18 31 -2 37 -30 5 -22 0 -33 -23 -57 -56 -55 -79 -66 -117
-52 -23 9 -35 20 -38 38 -7 37 1 44 40 36 l36 -6 -22 27 c-11 15 -21 38 -20
53 0 14 3 20 6 14 2 -7 9 -13 15 -13 8 0 6 17 -9 57 -5 12 14 12 35 0z m-408
-17 c0 -13 -7 -20 -19 -20 -28 0 -35 28 -8 33 12 2 23 5 25 6 1 0 2 -8 2 -19z
m284 -8 c10 5 19 8 20 6 6 -6 16 -58 12 -58 -13 0 -96 54 -96 62 0 6 10 4 23
-5 17 -11 28 -12 41 -5z m66 -2 c0 -5 -4 -10 -10 -10 -5 0 -10 5 -10 10 0 6 5
10 10 10 6 0 10 -4 10 -10z m-193 -61 c8 -19 9 -38 4 -48 -5 -9 -11 -31 -14
-49 -7 -45 -25 -66 -43 -51 -8 6 -14 16 -14 21 0 5 -11 26 -25 46 -14 20 -25
39 -25 42 0 3 16 14 35 24 19 10 32 22 30 27 -5 7 10 17 30 18 6 1 16 -13 22
-30z m65 9 c-7 -7 -12 -8 -12 -2 0 6 3 14 7 17 3 4 9 5 12 2 2 -3 -1 -11 -7
-17z m100 -28 c-4 -3 -7 -11 -8 -17 -2 -28 -4 -33 -14 -33 -5 0 -10 7 -10 15
0 20 -27 30 -44 16 -16 -14 -29 -3 -14 13 6 6 31 12 54 12 24 0 40 -3 36 -6z
m-90 -64 c6 -8 8 -8 8 0 0 16 39 12 49 -5 5 -7 14 -10 20 -7 6 4 11 3 11 -3 0
-5 -13 -12 -29 -16 -20 -4 -28 -11 -25 -20 8 -19 -55 -36 -78 -21 -17 10 -16
11 2 18 24 9 26 31 5 48 -8 7 -15 16 -15 20 0 11 43 -1 52 -14z m-822 -23 c13
-12 13 -13 -3 -7 -9 3 -24 0 -33 -7 -14 -11 -18 -11 -29 4 -14 19 -35 23 -35
6 0 -6 10 -19 22 -29 20 -16 25 -16 43 -4 29 21 38 17 21 -8 -33 -47 -16 -77
49 -84 39 -4 46 -2 42 11 -8 20 24 37 40 20 10 -10 0 -20 -47 -50 -33 -20 -57
-42 -54 -49 3 -7 18 -20 34 -29 29 -17 29 -17 47 9 13 20 14 29 5 32 -15 5
-15 19 0 36 10 10 17 3 35 -37 26 -55 23 -70 -6 -43 -17 16 -19 15 -35 -9 -19
-29 -42 -31 -92 -10 -26 11 -40 27 -59 67 -14 29 -25 62 -26 73 0 12 -5 6 -11
-15 -5 -19 -15 -41 -21 -49 -6 -7 -12 -20 -13 -28 -6 -41 -14 -19 -14 41 0 37
4 65 9 62 5 -3 9 16 11 42 1 26 2 55 3 64 1 14 9 16 52 11 27 -3 57 -12 65
-20z m295 17 c4 -6 11 -8 16 -5 5 4 9 -4 9 -16 0 -17 -4 -20 -22 -15 -13 3
-26 6 -30 6 -5 0 -8 9 -8 20 0 21 24 28 35 10z m1375 0 c0 -5 -2 -10 -4 -10
-3 0 -8 5 -11 10 -3 6 -1 10 4 10 6 0 11 -4 11 -10z m-760 -34 c0 -3 -4 -8
-10 -11 -5 -3 -10 -1 -10 4 0 6 5 11 10 11 6 0 10 -2 10 -4z m50 -15 c0 -6 -5
-13 -10 -16 -15 -9 -43 3 -35 15 8 13 45 13 45 1z m-840 -19 c0 -7 -5 -10 -11
-6 -6 3 -15 1 -19 -6 -7 -11 -14 -11 -39 0 -41 16 -33 25 23 25 31 0 46 -4 46
-13z m1157 -18 c-3 -3 -12 -4 -19 -1 -8 3 -5 6 6 6 11 1 17 -2 13 -5z m-529
-41 c19 -42 14 -47 -13 -15 -28 34 -31 42 -12 42 6 0 18 -12 25 -27z m186 11
c9 -3 16 -12 16 -20 0 -19 -7 -18 -32 6 -22 20 -15 26 16 14z m-136 -29 c-27
-14 -33 -12 -25 9 4 9 14 12 27 9 21 -6 21 -6 -2 -18z m-528 -48 c0 6 -4 15
-10 18 -5 3 -10 14 -10 23 1 14 4 12 20 -7 15 -17 17 -27 10 -36 -6 -7 -8 -20
-4 -29 8 -20 -5 -20 -30 -1 -33 25 -43 16 -11 -10 22 -18 25 -25 13 -25 -14 0
-58 56 -58 74 0 4 14 -1 31 -9 29 -16 30 -15 20 3 -5 10 -17 24 -25 32 -9 7
-16 18 -16 24 1 6 16 -7 35 -29 19 -22 35 -35 35 -28z m1053 56 c-7 -2 -19 -2
-25 0 -7 3 -2 5 12 5 14 0 19 -2 13 -5z m-463 -13 c0 -5 -5 -10 -11 -10 -5 0
-7 5 -4 10 3 6 8 10 11 10 2 0 4 -4 4 -10z m407 -16 c-15 -8 -33 -11 -40 -7
-8 5 -1 10 18 14 48 10 52 9 22 -7z m353 -13 c0 -5 -9 -7 -20 -4 -11 3 -20 7
-20 9 0 2 9 4 20 4 11 0 20 -4 20 -9z m-930 -46 c0 -20 6 -37 15 -43 14 -7 13
-12 -6 -36 -18 -22 -23 -25 -37 -14 -12 11 -12 7 2 -21 17 -32 15 -53 -11 -90
-2 -3 -9 4 -16 13 -13 18 -16 17 -55 -8 l-42 -26 -11 27 c-11 28 4 83 23 83 5
0 7 9 3 19 -4 13 0 21 12 25 25 8 103 79 103 94 0 7 5 12 10 12 6 0 10 -16 10
-35z m200 14 c52 -11 96 -22 99 -24 2 -3 -5 -7 -15 -11 -10 -3 -47 -19 -81
-34 -59 -27 -62 -27 -78 -10 -13 15 -14 18 -2 23 8 3 20 0 26 -6 6 -6 11 -7
11 -1 0 15 -22 34 -39 34 -26 0 -42 16 -35 33 8 21 1 21 114 -4z m-944 -27 c1
-13 6 -28 13 -35 6 -6 11 -18 10 -26 0 -11 -2 -12 -6 -3 -2 6 -8 10 -13 7 -5
-3 -12 4 -15 16 -6 17 -9 19 -16 8 -8 -12 -12 -11 -23 4 -21 28 -9 56 22 54
20 -2 27 -8 28 -25z m1229 9 c12 -21 73 -44 135 -52 128 -16 129 -16 141 -65
6 -25 15 -47 20 -50 17 -10 9 -24 -13 -21 -16 1 -25 -6 -32 -28 -15 -42 -38
-59 -51 -37 -5 9 -9 26 -10 37 0 13 -8 21 -22 23 -23 3 -27 11 -23 47 2 19 1
19 -17 3 -15 -14 -22 -15 -31 -6 -9 9 -12 5 -12 -17 0 -21 -14 -42 -53 -82
-60 -59 -83 -65 -130 -31 -29 21 -30 21 -23 2 14 -35 11 -39 -19 -35 -32 3
-42 15 -62 68 -11 31 -10 33 12 39 13 3 33 3 45 -1 21 -7 21 -7 -5 -41 -25
-32 -21 -50 4 -20 8 9 24 12 49 9 52 -7 74 17 45 50 -33 38 -55 78 -49 92 3 8
0 15 -7 18 -6 2 -2 6 10 9 16 4 28 -4 52 -39 17 -24 38 -46 47 -50 23 -9 48 9
52 37 3 18 9 21 33 18 16 -3 29 -1 29 3 0 4 -32 35 -71 68 -38 34 -66 61 -60
61 5 0 12 -4 16 -9z m145 -11 c0 -5 -4 -10 -10 -10 -5 0 -10 5 -10 10 0 6 5
10 10 10 6 0 10 -4 10 -10z m-536 -69 c40 -66 43 -73 21 -65 -9 4 -15 0 -15
-8 0 -8 -13 -26 -28 -40 -27 -23 -50 -26 -63 -5 -10 15 13 65 34 74 18 8 19
10 3 26 -13 12 -15 26 -10 52 3 19 10 33 15 30 4 -3 24 -32 43 -64z m-448 -3
c9 -18 23 -38 30 -46 23 -22 16 -35 -37 -69 -48 -31 -49 -31 -51 -10 0 12 -1
29 0 37 4 47 3 77 -1 95 -4 16 0 21 19 23 17 1 28 -6 40 -30z m-409 6 c-3 -3
-12 -4 -19 -1 -8 3 -5 6 6 6 11 1 17 -2 13 -5z m603 -9 c11 -13 10 -14 -4 -9
-9 3 -16 10 -16 15 0 13 6 11 20 -6z m983 0 c15 -3 25 -10 22 -15 -6 -10 -63
4 -78 19 -10 10 -7 10 56 -4z m-1619 -11 c3 -8 2 -12 -4 -9 -6 3 -10 10 -10
16 0 14 7 11 14 -7z m162 1 c4 -8 12 -15 19 -15 11 0 10 -9 -3 -41 l-16 -41
-18 22 c-12 15 -24 20 -38 15 -25 -8 -25 1 0 43 21 34 47 42 56 17z m357 -32
c-7 -2 -19 -2 -25 0 -7 3 -2 5 12 5 14 0 19 -2 13 -5z m578 -9 c11 -14 9 -19
-11 -35 -29 -22 -36 -23 -46 -8 -8 14 15 59 31 59 7 0 19 -7 26 -16z m529 7
c0 -5 -7 -14 -16 -22 -13 -10 -17 -10 -25 2 -14 23 -11 29 16 29 14 0 25 -4
25 -9z m-1595 -23 c-6 -14 49 -55 67 -50 5 1 16 -2 24 -9 7 -6 18 -8 24 -4 5
3 10 -1 10 -9 0 -8 11 -23 25 -34 21 -17 22 -22 11 -37 -10 -14 -22 -17 -57
-12 l-44 6 29 -23 c21 -18 27 -29 21 -45 -7 -22 10 -30 18 -8 4 9 7 9 17 0 10
-10 11 -15 1 -27 -14 -17 -59 -15 -71 4 -4 7 -13 10 -19 6 -7 -5 -9 -1 -5 9 4
9 -6 34 -22 58 -15 23 -29 47 -30 52 -2 6 -10 36 -18 68 -20 71 -20 67 4 67
11 0 17 -5 15 -12z m245 -12 c0 -6 4 -5 9 3 5 7 14 10 20 6 9 -5 7 -11 -6 -21
-11 -8 -13 -13 -5 -14 10 0 10 -4 0 -19 -9 -15 -16 -17 -25 -10 -13 11 -33 4
-33 -12 0 -5 9 -17 20 -26 11 -10 20 -22 20 -28 0 -5 -12 3 -25 18 -39 44 -30
136 11 120 8 -3 14 -10 14 -17z m740 9 c11 -13 10 -14 -4 -9 -9 3 -16 10 -16
15 0 13 6 11 20 -6z m-60 -20 c7 -8 9 -15 4 -15 -4 0 -3 -5 4 -12 7 -7 12 -27
12 -45 l0 -34 -25 18 c-15 11 -24 27 -24 43 l1 25 8 -25 c8 -24 8 -23 9 8 1
39 -4 39 -48 2 -19 -16 -37 -27 -40 -24 -3 4 3 11 14 18 10 6 28 21 40 33 24
27 29 28 45 8z m-412 -9 c-10 -7 -18 -21 -18 -31 0 -9 -9 -29 -21 -43 -17 -22
-19 -35 -14 -74 8 -57 1 -84 -25 -91 -28 -7 -25 -41 4 -55 19 -8 32 -6 66 10
35 18 48 19 71 11 30 -12 35 -8 20 16 -6 9 3 25 30 52 41 41 50 77 24 99 -15
13 -21 49 -7 51 4 1 24 3 45 4 38 2 39 1 33 -26 -3 -16 -15 -38 -26 -49 -16
-16 -19 -28 -14 -59 5 -30 3 -39 -7 -38 -8 1 -14 -2 -14 -8 0 -5 4 -9 9 -7 5
2 6 -4 2 -13 -3 -9 -6 -25 -6 -36 0 -12 -7 -19 -19 -19 -10 0 -24 -7 -31 -15
-17 -21 14 -32 37 -14 15 12 16 12 10 -4 -4 -10 -12 -47 -19 -82 -6 -36 -15
-65 -19 -65 -4 0 -10 16 -13 35 -6 32 -10 35 -41 35 -19 0 -36 -3 -38 -7 -7
-12 11 -53 23 -53 6 0 2 12 -7 27 l-18 27 32 -23 c18 -14 30 -28 27 -32 -2 -4
5 -11 16 -14 19 -6 21 -12 14 -63 -3 -32 -10 -61 -14 -66 -10 -10 -109 22
-125 39 -5 7 -16 10 -23 8 -38 -14 -231 129 -314 232 -53 65 -56 73 -30 82 9
4 43 22 75 39 41 24 57 29 57 18 0 -7 -5 -14 -11 -14 -5 0 -7 -6 -3 -12 6 -10
5 -10 -8 -1 -12 11 -17 9 -26 -12 -6 -14 -15 -25 -20 -25 -5 0 -9 -7 -9 -15 0
-15 9 -19 37 -16 11 1 12 -1 3 -6 -8 -6 -4 -18 16 -41 16 -17 34 -32 40 -32 6
0 16 -10 21 -22 5 -13 9 -17 9 -9 1 11 7 9 24 -7 l22 -21 0 28 c0 28 -22 64
-34 57 -3 -2 -20 2 -38 9 -32 14 -55 56 -34 63 6 2 11 13 11 25 0 11 8 29 17
39 14 15 15 21 4 27 -10 6 -3 16 24 37 21 16 52 41 69 55 17 14 47 36 66 50
59 41 132 79 88 45z m-178 -25 c0 -4 -7 -16 -16 -27 -8 -10 -13 -14 -10 -8 3
7 -1 17 -9 24 -8 7 -13 16 -10 20 6 9 45 1 45 -9z m-510 -1 c0 -5 -7 -10 -16
-10 -8 0 -12 5 -9 10 3 6 10 10 16 10 5 0 9 -4 9 -10z m968 -58 c-10 -12 -10
-16 0 -19 6 -3 12 -11 12 -19 0 -16 -5 -17 -29 -5 -26 14 -17 71 10 64 16 -5
17 -8 7 -21z m92 24 c0 -12 -34 -36 -51 -36 -26 0 -24 13 4 26 23 12 47 17 47
10z m150 -104 c0 -29 2 -32 19 -23 14 8 24 4 46 -19 15 -15 24 -33 20 -39 -6
-11 -75 -8 -95 4 -5 3 -20 8 -31 10 -31 6 -35 13 -21 35 18 30 -5 24 -24 -6
-25 -37 -34 -16 -19 41 8 28 14 40 14 28 1 -37 19 -35 30 3 7 25 7 44 0 58 -6
12 6 3 25 -19 25 -28 36 -50 36 -73z m333 89 c5 0 6 -5 3 -10 -3 -5 1 -12 10
-15 11 -4 14 -13 11 -27 -3 -12 0 -22 9 -26 17 -6 19 -26 2 -20 -7 2 -21 -2
-30 -11 -16 -14 -18 -13 -19 4 -2 34 2 49 19 62 15 12 13 13 -18 12 -52 -3
-56 -2 -57 19 -2 18 18 22 70 12z m57 -11 c0 -5 -5 -10 -11 -10 -5 0 -7 5 -4
10 3 6 8 10 11 10 2 0 4 -4 4 -10z m-513 -42 c-3 -7 -5 -2 -5 12 0 14 2 19 5
13 2 -7 2 -19 0 -25z m-47 -10 c0 -30 0 -31 -20 -13 -15 14 -17 21 -9 32 19
22 29 15 29 -19z m-650 13 c0 -10 -25 -21 -48 -21 -15 1 -14 3 2 15 22 17 46
20 46 6z m1104 -7 c23 -23 20 -30 -4 -9 -18 16 -20 16 -20 2 0 -10 -4 -17 -10
-17 -5 0 -10 -9 -10 -20 0 -22 35 -46 45 -30 4 7 12 7 24 0 10 -5 21 -6 25 -3
3 3 6 2 6 -4 0 -16 -22 -29 -56 -32 -36 -3 -79 35 -87 77 -6 32 -2 39 16 24
10 -9 17 -6 27 8 17 24 24 25 44 4z m-169 -34 c3 -5 16 -15 27 -21 18 -10 20
-9 15 6 -5 11 -3 15 5 12 8 -2 12 -17 10 -34 -2 -18 3 -35 13 -43 8 -7 15 -18
15 -25 0 -6 9 -20 20 -30 15 -13 17 -22 10 -29 -8 -8 -19 -1 -40 24 -15 19
-26 39 -23 44 4 5 1 6 -5 2 -11 -6 -72 73 -72 93 0 14 17 14 25 1z m-1215 -36
c61 -52 74 -108 40 -181 -31 -69 -99 -97 -180 -74 l-25 8 30 6 c17 3 49 9 72
12 29 5 44 12 48 26 4 10 13 19 21 19 11 0 14 16 14 68 l0 68 -46 29 c-49 31
-100 35 -139 11 -32 -20 -55 -26 -55 -15 0 18 84 49 137 49 41 0 58 -5 83 -26z
m880 1 c0 -7 -7 -18 -15 -25 -13 -11 -15 -9 -13 12 2 24 28 36 28 13z m-58
-29 c-3 -23 -1 -27 15 -22 13 4 23 -3 36 -26 17 -30 18 -31 37 -12 40 40 48
44 58 31 12 -14 -11 -52 -26 -43 -6 3 -17 -5 -26 -19 -9 -14 -12 -25 -7 -25 6
0 15 -9 21 -20 9 -16 8 -18 -5 -14 -11 4 -15 0 -15 -16 0 -17 4 -20 23 -15 20
6 21 5 4 -8 -14 -12 -16 -20 -7 -42 7 -18 15 -25 26 -21 8 3 13 2 10 -3 -8
-12 -65 -37 -101 -45 -22 -4 -16 1 20 18 l50 24 -60 -2 c-72 -1 -91 18 -22 22
30 2 47 8 47 16 0 22 -12 25 -35 10 -16 -10 -25 -12 -30 -5 -9 16 -25 13 -25
-4 0 -8 -12 -18 -27 -21 -16 -4 -32 -12 -36 -18 -5 -6 -6 5 -3 24 3 19 9 60
12 90 4 30 10 60 14 65 4 6 6 20 5 32 -2 26 12 20 26 -11 9 -21 6 8 -8 72 -5
19 -2 23 13 20 14 -2 18 -10 16 -32z m113 24 c8 -13 -5 -13 -25 0 -13 8 -13
10 2 10 9 0 20 -4 23 -10z m-338 -6 c-3 -3 -12 -4 -19 -1 -8 3 -5 6 6 6 11 1
17 -2 13 -5z m-695 -41 c62 -27 62 -89 -1 -111 -23 -8 -37 -7 -63 6 -45 23
-49 61 -11 96 33 31 27 30 75 9z m1345 -56 l31 -41 -31 -23 c-18 -13 -40 -22
-49 -20 -9 3 -19 0 -22 -7 -3 -6 -3 0 0 14 8 33 11 35 27 22 10 -9 17 -8 25 0
18 18 14 39 -13 64 -14 13 -25 28 -25 33 0 19 25 1 57 -42z m-157 17 c11 -13
10 -16 -7 -20 -15 -4 -19 -12 -15 -30 2 -14 0 -24 -7 -24 -6 0 -11 8 -11 19 0
10 -7 24 -15 31 -11 9 -12 15 -2 25 16 19 42 18 57 -1z m17 -79 c0 -11 -4 -12
-14 -4 -7 6 -13 13 -13 15 0 2 6 4 13 4 8 0 14 -7 14 -15z m-1289 -56 c13 -21
13 -21 -12 -3 -27 20 -35 37 -13 28 7 -2 18 -14 25 -25z m1327 21 c-3 -5 -13
-10 -21 -10 -8 0 -12 5 -9 10 3 6 13 10 21 10 8 0 12 -4 9 -10z m90 0 c3 -5 1
-10 -4 -10 -6 0 -11 5 -11 10 0 6 2 10 4 10 3 0 8 -4 11 -10z m-30 -40 c-10
-11 -22 -20 -27 -20 -5 0 -4 9 2 20 6 11 18 20 27 20 14 0 14 -2 -2 -20z m-65
-14 c0 -3 -4 -8 -10 -11 -5 -3 -10 -1 -10 4 0 6 5 11 10 11 6 0 10 -2 10 -4z
m-50 -28 c0 -4 -9 -8 -21 -8 -11 0 -18 -4 -15 -9 3 -4 -3 -16 -13 -25 -15 -13
-20 -14 -24 -4 -3 9 -8 10 -16 2 -9 -8 -8 -14 4 -24 13 -11 12 -15 -10 -36
-27 -25 -41 -31 -30 -14 3 6 -3 10 -14 10 -11 0 -22 4 -26 10 -3 5 -13 7 -23
4 -9 -3 -3 6 13 20 17 14 36 26 43 26 6 0 12 7 12 15 0 9 9 15 24 15 13 0 26
6 29 13 5 15 67 19 67 5z m46 -9 c-14 -11 -32 -18 -39 -16 -7 4 -6 6 4 6 9 1
22 8 29 16 7 8 17 15 23 15 5 0 -2 -9 -17 -21z m-398 -54 c-8 -71 4 -79 109
-80 73 0 87 -2 74 -12 -18 -14 -188 -18 -207 -5 -8 5 -7 25 4 75 18 77 27 87
20 22z m65 -12 c-7 -2 -19 -2 -25 0 -7 3 -2 5 12 5 14 0 19 -2 13 -5z m-612
-42 c16 -16 29 -40 29 -53 0 -13 3 -32 6 -43 4 -15 -3 -25 -24 -37 l-30 -18
-41 42 c-23 22 -49 54 -58 69 -12 21 -25 29 -45 29 -15 0 -29 4 -32 9 -4 5 2
7 13 4 10 -3 32 2 47 11 48 26 101 21 135 -13z m382 -32 c-67 -19 -94 -99 -52
-153 29 -37 13 -48 -18 -12 l-25 30 -19 -25 c-10 -13 -19 -32 -19 -41 0 -10
-4 -18 -9 -18 -15 0 7 55 30 76 10 9 19 30 19 45 0 59 49 110 105 108 13 -1 8
-4 -12 -10z m68 -6 c13 -15 12 -15 -8 -4 -24 12 -29 21 -14 21 5 0 15 -7 22
-17z m-351 -23 c0 -5 -5 -10 -11 -10 -5 0 -7 5 -4 10 3 6 8 10 11 10 2 0 4 -4
4 -10z m404 -26 c9 -24 7 -62 -4 -69 -6 -4 -10 6 -10 24 0 16 -3 36 -6 45 -3
9 -2 16 4 16 5 0 13 -7 16 -16z m-354 -164 c0 -5 -5 -10 -11 -10 -5 0 -7 5 -4
10 3 6 8 10 11 10 2 0 4 -4 4 -10z"/>
<path d="M1406 3048 c-9 -36 -7 -48 9 -48 11 0 13 8 8 33 -8 41 -9 43 -17 15z"/>
<path d="M1891 3060 c-1 -8 -4 -25 -7 -37 -5 -17 -2 -23 10 -23 17 0 19 11 6
50 -4 14 -9 18 -9 10z"/>
<path d="M1688 2233 c-33 -4 -77 -33 -49 -33 6 0 11 5 11 10 0 6 18 10 40 10
22 0 40 5 40 10 0 6 -1 9 -2 8 -2 -1 -20 -3 -40 -5z"/>
<path d="M1503 2223 c-19 -7 -16 -20 5 -25 16 -4 42 12 42 27 0 6 -30 5 -47
-2z"/>
<path d="M1780 2221 c0 -5 7 -12 16 -15 22 -9 24 -8 18 9 -7 16 -34 21 -34 6z"/>
<path d="M1450 2181 c0 -6 5 -13 10 -16 15 -9 2 -25 -21 -25 -12 0 -19 -7 -19
-20 0 -23 18 -27 26 -6 7 19 40 26 53 13 8 -8 11 -5 11 10 0 11 -11 28 -25 37
-28 18 -35 20 -35 7z"/>
<path d="M1875 2160 c-3 -5 3 -11 14 -15 27 -8 55 -41 42 -50 -6 -3 -11 -16
-10 -28 0 -12 3 -16 6 -9 8 20 41 14 49 -10 4 -15 1 -26 -12 -35 -17 -13 -15
-14 24 -12 42 3 55 15 27 25 -8 4 -15 13 -15 21 0 10 12 5 38 -17 30 -25 38
-27 40 -15 2 9 -4 25 -14 36 -28 31 -11 30 25 -2 19 -16 40 -29 47 -29 8 0 14
-4 14 -10 0 -5 6 -7 14 -4 8 3 17 1 21 -5 8 -13 25 -14 25 -2 0 5 -22 23 -49
40 -27 18 -52 38 -55 46 -3 8 -12 15 -21 15 -8 0 -15 3 -15 8 0 12 -77 45 -89
38 -18 -12 -12 -26 11 -26 17 0 19 -3 10 -12 -9 -9 -19 -5 -44 19 -34 31 -74
47 -83 33z"/>
<path d="M1765 2150 c3 -5 8 -10 11 -10 2 0 4 5 4 10 0 6 -5 10 -11 10 -5 0
-7 -4 -4 -10z"/>
<path d="M1862 2108 c5 -15 48 -18 48 -3 0 6 -11 11 -26 13 -18 3 -25 0 -22
-10z"/>
<path d="M1534 2102 c-6 -4 -16 -17 -22 -29 -9 -16 -9 -22 2 -26 10 -4 12 0 8
15 -4 17 -2 20 11 15 9 -3 18 0 21 8 6 17 -6 27 -20 17z"/>
<path d="M1286 2021 c-4 -5 -2 -12 3 -15 5 -4 12 -2 15 3 4 5 2 12 -3 15 -5 4
-12 2 -15 -3z"/>
<path d="M2005 1982 c-3 -9 1 -19 10 -24 8 -5 14 -12 11 -16 -2 -4 7 -8 20 -8
28 -2 28 -3 13 30 -14 29 -45 40 -54 18z"/>
<path d="M2152 1883 c2 -10 14 -20 28 -22 25 -3 25 -3 6 18 -23 26 -39 27 -34
4z"/>
<path d="M2121 1827 c-6 -14 -18 -30 -28 -36 -17 -10 -17 -10 -1 -11 17 0 54
57 44 67 -3 3 -10 -6 -15 -20z"/>
<path d="M1141 1977 c-9 -12 -7 -17 16 -24 15 -6 34 -8 41 -6 17 6 15 33 -2
33 -8 0 -21 2 -29 5 -7 3 -19 -1 -26 -8z"/>
<path d="M1064 1925 c3 -8 -3 -19 -13 -25 -19 -9 -19 -50 -1 -50 4 0 13 -13
20 -30 12 -28 35 -34 24 -6 -7 17 28 28 86 27 25 -1 52 3 60 9 13 9 11 14 -10
32 -14 11 -24 25 -22 29 3 12 -11 11 -41 0 -18 -7 -32 -5 -56 10 -38 23 -55
24 -47 4z"/>
<path d="M992 1842 c-21 -16 -22 -20 -8 -31 18 -15 21 -41 6 -41 -6 0 -13 7
-16 15 -10 24 -51 19 -58 -7 -3 -13 -1 -27 5 -33 6 -6 12 -2 15 13 7 26 29 29
42 6 8 -14 12 -12 30 14 24 33 33 73 17 78 -5 2 -20 -5 -33 -14z"/>
<path d="M1824 1908 c3 -13 6 -26 6 -30 0 -5 10 -7 23 -7 17 1 18 2 4 6 -15 4
-16 7 -6 20 10 12 10 16 -2 24 -23 15 -32 10 -25 -13z"/>
<path d="M1765 1880 c-3 -5 -1 -10 4 -10 6 0 11 5 11 10 0 6 -2 10 -4 10 -3 0
-8 -4 -11 -10z"/>
<path d="M3057 1826 c-4 -10 -1 -13 9 -9 15 6 19 23 5 23 -5 0 -11 -7 -14 -14z"/>
<path d="M1360 1761 c0 -5 5 -13 10 -16 6 -3 10 -2 10 4 0 5 -4 13 -10 16 -5
3 -10 2 -10 -4z"/>
<path d="M2406 1673 c-4 -9 0 -23 9 -32 13 -14 15 -12 15 17 0 34 -14 43 -24
15z"/>
<path d="M2210 1561 c0 -6 18 -9 40 -8 47 2 45 8 -5 14 -19 2 -35 -1 -35 -6z"/>
<path d="M2010 1426 c0 -2 8 -10 18 -17 15 -13 16 -12 3 4 -13 16 -21 21 -21
13z"/>
<path d="M1970 1360 c8 -5 24 -9 35 -9 l20 0 -20 9 c-11 5 -27 9 -35 9 -13 1
-13 0 0 -9z"/>
<path d="M2425 1270 c3 -5 8 -10 11 -10 2 0 4 5 4 10 0 6 -5 10 -11 10 -5 0
-7 -4 -4 -10z"/>
<path d="M1581 1299 c-16 -13 -18 -19 -8 -19 15 0 43 27 36 34 -2 3 -15 -4
-28 -15z"/>
<path d="M1466 1164 c-9 -24 -8 -24 27 -17 40 7 45 12 27 23 -23 15 -47 12
-54 -6z"/>
<path d="M1081 1124 c0 -11 3 -14 6 -6 3 7 2 16 -1 19 -3 4 -6 -2 -5 -13z"/>
<path d="M1232 997 c-13 -13 -24 -34 -25 -45 0 -12 -11 -26 -23 -33 -14 -7
-27 -29 -35 -57 -7 -25 -14 -41 -17 -34 -2 7 -13 12 -24 12 -25 0 -19 -21 12
-37 19 -9 26 -8 39 7 31 35 57 34 80 -3 12 -19 21 -44 21 -55 0 -11 4 -23 9
-26 11 -7 23 22 15 36 -4 6 0 14 7 19 11 7 10 9 -3 9 -10 0 -20 10 -24 25 -3
14 -10 25 -15 25 -4 0 -13 9 -18 19 -8 14 -6 25 10 45 15 19 19 37 17 72 l-3
46 -23 -25z m-32 -97 c0 -5 -2 -10 -4 -10 -3 0 -8 5 -11 10 -3 6 -1 10 4 10 6
0 11 -4 11 -10z"/>
<path d="M1391 798 c-5 -13 -4 -27 2 -33 14 -15 58 21 50 41 -8 22 -43 16 -52
-8z"/>
<path d="M1110 695 c13 -14 26 -25 28 -25 3 0 -5 11 -18 25 -13 14 -26 25 -28
25 -3 0 5 -11 18 -25z"/>
<path d="M1296 707 c8 -21 -32 -50 -60 -45 -14 3 -23 2 -21 -2 3 -4 19 -10 37
-14 30 -6 31 -7 12 -20 -18 -14 -18 -15 8 -21 15 -4 31 -4 36 -1 4 3 20 -1 33
-8 28 -14 89 -28 89 -20 0 20 -24 44 -44 44 -28 0 -76 51 -76 81 0 10 -4 19
-10 19 -5 0 -7 -6 -4 -13z"/>
<path d="M1910 910 c0 -5 5 -10 10 -10 6 0 10 5 10 10 0 6 -4 10 -10 10 -5 0
-10 -4 -10 -10z"/>
<path d="M1608 812 c-20 -4 -22 -11 -10 -29 10 -16 35 0 30 18 -1 8 -11 13
-20 11z"/>
<path d="M1657 804 c-8 -8 1 -24 14 -24 5 0 9 7 9 15 0 15 -12 20 -23 9z"/>
<path d="M1558 696 c-5 -24 -4 -24 17 -8 24 18 24 32 1 32 -8 0 -16 -11 -18
-24z"/>
</g>
</svg>
